<?xml version="1.0" encoding="UTF-8"?>
<svg id="Layer_2" data-name="Layer 2" xmlns="http://www.w3.org/2000/svg" viewBox="0 0 243.07 275.47">
  <defs>
    <style>
      .cls-1 {
        fill: #fff;
      }

      .cls-2 {
        fill: #f57f20;
      }

      .cls-3 {
        fill: #7d7d7d;
      }
    </style>
  </defs>
  <g id="Layer_1-2" data-name="Layer 1">
    <g>
      <path class="cls-1" d="M193.08,33.14h-89.87s-47.66,2.97-54.2,48.94l-.74,111.51,31.48-35.87v-33.17h20.16l25.71-31.2-45.46.46s-1.42-23.19,22.18-28.72h63.24l27.51-31.96Z"/>
      <g>
        <polygon class="cls-2" points="92.7 275.35 123.73 275.47 147.1 212.47 123.51 212.47 92.7 275.35"/>
        <polygon class="cls-2" points="132.84 194.17 153.36 194.17 169.96 149.1 154.99 149.1 132.84 194.17"/>
        <polygon class="cls-2" points="162.34 134.59 175.01 135.14 191.86 89.94 184.31 90.11 162.34 134.59"/>
        <polygon class="cls-2" points="188.97 79.93 195.84 79.93 213.84 30.25 188.97 79.93"/>
      </g>
      <polygon class="cls-1" points="0 274.9 45.57 274.9 209.72 31.37 201.86 31.37 0 274.9"/>
      <polygon class="cls-3" points="226.4 0 179.51 27.92 201.86 31.37 209.72 31.37 220.58 15.25 174.4 274.9 214.65 274.9 222.13 38.94 243.07 50.92 226.4 0"/>
    </g>
  </g>
</svg>